<svg xmlns="http://www.w3.org/2000/svg" width="47" height="47" viewBox="0 0 47 47">
    <g fill="none" fill-rule="evenodd" stroke="#167BF7" stroke-linecap="square" stroke-width="3">
        <path d="M28.5 32.5h-24c-2.2 0-4-1.8-4-4v-24c0-2.2 1.8-4 4-4h34c2.2 0 4 1.8 4 4v12" transform="matrix(-1 0 0 1 46 1)"/>
        <path d="M28.5 26.5L12.5 26.5 12.5 6.5 36.5 6.5 36.5 16.5" transform="matrix(-1 0 0 1 46 1)"/>
        <path d="M42.5 44.5h-12c-1.1 0-2-.9-2-2v-24c0-1.1.9-2 2-2h12c1.1 0 2 .9 2 2v24c0 1.1-.9 2-2 2zM6.5 14.5L6.5 18.5M28.5 22.5L44.5 22.5M28.5 36.5L44.5 36.5" transform="matrix(-1 0 0 1 46 1)"/>
    </g>
</svg>
